<mxfile host="app.diagrams.net" modified="2022-10-27T19:04:17.306Z" agent="5.0 (Windows NT 10.0; Win64; x64) AppleWebKit/537.36 (KHTML, like Gecko) Chrome/106.0.0.0 Safari/537.36 Edg/106.0.1370.52" etag="jAX1S6cCGCRkSYko2MOl" version="20.5.1" type="github">
  <diagram name="Page-1" id="e7e014a7-5840-1c2e-5031-d8a46d1fe8dd">
    <mxGraphModel dx="2076" dy="1142" grid="1" gridSize="10" guides="1" tooltips="1" connect="1" arrows="1" fold="1" page="1" pageScale="1" pageWidth="2339" pageHeight="3300" background="none" math="0" shadow="0">
      <root>
        <mxCell id="0" />
        <mxCell id="1" parent="0" />
        <mxCell id="Q_8kS4ZeKty7kXpfNYcQ-125" value="" style="group;movable=1;resizable=1;rotatable=1;deletable=1;editable=1;connectable=1;" parent="1" vertex="1" connectable="0">
          <mxGeometry x="40" y="20" width="2290.0060000000003" height="3250.028" as="geometry" />
        </mxCell>
        <mxCell id="Q_8kS4ZeKty7kXpfNYcQ-126" value="" style="rounded=0;whiteSpace=wrap;html=1;fillColor=none;movable=0;resizable=0;rotatable=0;deletable=0;editable=0;connectable=0;" parent="Q_8kS4ZeKty7kXpfNYcQ-125" vertex="1">
          <mxGeometry width="2290" height="3250" as="geometry" />
        </mxCell>
        <mxCell id="Q_8kS4ZeKty7kXpfNYcQ-127" value="" style="rounded=0;whiteSpace=wrap;html=1;fillColor=none;movable=0;resizable=0;rotatable=0;deletable=0;editable=0;connectable=0;" parent="Q_8kS4ZeKty7kXpfNYcQ-125" vertex="1">
          <mxGeometry x="1561.1100000000001" y="3072.86" width="728.35" height="177.165" as="geometry" />
        </mxCell>
        <mxCell id="Q_8kS4ZeKty7kXpfNYcQ-128" value="" style="rounded=0;whiteSpace=wrap;html=1;fillColor=none;movable=0;resizable=0;rotatable=0;deletable=0;editable=0;connectable=0;" parent="Q_8kS4ZeKty7kXpfNYcQ-125" vertex="1">
          <mxGeometry x="1562.0099999999998" y="3111.16" width="27.558999999999997" height="19.685" as="geometry" />
        </mxCell>
        <mxCell id="Q_8kS4ZeKty7kXpfNYcQ-129" value="" style="rounded=0;whiteSpace=wrap;html=1;fillColor=none;movable=0;resizable=0;rotatable=0;deletable=0;editable=0;connectable=0;" parent="Q_8kS4ZeKty7kXpfNYcQ-125" vertex="1">
          <mxGeometry x="1562.0000000000002" y="3131.6699999999996" width="27.558999999999997" height="19.685" as="geometry" />
        </mxCell>
        <mxCell id="Q_8kS4ZeKty7kXpfNYcQ-130" value="" style="rounded=0;whiteSpace=wrap;html=1;fillColor=none;movable=0;resizable=0;rotatable=0;deletable=0;editable=0;connectable=0;" parent="Q_8kS4ZeKty7kXpfNYcQ-125" vertex="1">
          <mxGeometry x="1562.01" y="3091.47" width="27.558999999999997" height="19.685" as="geometry" />
        </mxCell>
        <mxCell id="Q_8kS4ZeKty7kXpfNYcQ-131" value="" style="rounded=0;whiteSpace=wrap;html=1;fillColor=none;movable=0;resizable=0;rotatable=0;deletable=0;editable=0;connectable=0;" parent="Q_8kS4ZeKty7kXpfNYcQ-125" vertex="1">
          <mxGeometry x="1589.5699999999997" y="3111.16" width="39.37" height="19.685" as="geometry" />
        </mxCell>
        <mxCell id="Q_8kS4ZeKty7kXpfNYcQ-132" value="" style="rounded=0;whiteSpace=wrap;html=1;fillColor=none;movable=0;resizable=0;rotatable=0;deletable=0;editable=0;connectable=0;" parent="Q_8kS4ZeKty7kXpfNYcQ-125" vertex="1">
          <mxGeometry x="1589.5600000000002" y="3131.6699999999996" width="39.37" height="19.685" as="geometry" />
        </mxCell>
        <mxCell id="Q_8kS4ZeKty7kXpfNYcQ-133" value="" style="rounded=0;whiteSpace=wrap;html=1;fillColor=none;movable=0;resizable=0;rotatable=0;deletable=0;editable=0;connectable=0;" parent="Q_8kS4ZeKty7kXpfNYcQ-125" vertex="1">
          <mxGeometry x="1589.57" y="3091.47" width="39.37" height="19.685" as="geometry" />
        </mxCell>
        <mxCell id="Q_8kS4ZeKty7kXpfNYcQ-134" value="" style="rounded=0;whiteSpace=wrap;html=1;fillColor=none;movable=0;resizable=0;rotatable=0;deletable=0;editable=0;connectable=0;" parent="Q_8kS4ZeKty7kXpfNYcQ-125" vertex="1">
          <mxGeometry x="1628.9399999999998" y="3111.16" width="90.551" height="19.685" as="geometry" />
        </mxCell>
        <mxCell id="Q_8kS4ZeKty7kXpfNYcQ-135" value="" style="rounded=0;whiteSpace=wrap;html=1;fillColor=none;movable=0;resizable=0;rotatable=0;deletable=0;editable=0;connectable=0;" parent="Q_8kS4ZeKty7kXpfNYcQ-125" vertex="1">
          <mxGeometry x="1629.2800000000002" y="3110.9399999999996" width="90.551" height="19.685" as="geometry" />
        </mxCell>
        <mxCell id="Q_8kS4ZeKty7kXpfNYcQ-136" value="" style="rounded=0;whiteSpace=wrap;html=1;fillColor=none;movable=0;resizable=0;rotatable=0;deletable=0;editable=0;connectable=0;" parent="Q_8kS4ZeKty7kXpfNYcQ-125" vertex="1">
          <mxGeometry x="1628.94" y="3091.47" width="90.551" height="19.685" as="geometry" />
        </mxCell>
        <mxCell id="Q_8kS4ZeKty7kXpfNYcQ-137" value="" style="rounded=0;whiteSpace=wrap;html=1;fillColor=none;movable=0;resizable=0;rotatable=0;deletable=0;editable=0;connectable=0;" parent="Q_8kS4ZeKty7kXpfNYcQ-125" vertex="1">
          <mxGeometry x="1719.4899999999998" y="3111.16" width="59.055" height="19.685" as="geometry" />
        </mxCell>
        <mxCell id="Q_8kS4ZeKty7kXpfNYcQ-138" value="" style="rounded=0;whiteSpace=wrap;html=1;fillColor=none;movable=0;resizable=0;rotatable=0;deletable=0;editable=0;connectable=0;" parent="Q_8kS4ZeKty7kXpfNYcQ-125" vertex="1">
          <mxGeometry x="1719.14" y="3131.67" width="59.055" height="19.685" as="geometry" />
        </mxCell>
        <mxCell id="Q_8kS4ZeKty7kXpfNYcQ-139" value="" style="rounded=0;whiteSpace=wrap;html=1;fillColor=none;movable=0;resizable=0;rotatable=0;deletable=0;editable=0;connectable=0;" parent="Q_8kS4ZeKty7kXpfNYcQ-125" vertex="1">
          <mxGeometry x="1719.49" y="3091.47" width="59.055" height="19.685" as="geometry" />
        </mxCell>
        <mxCell id="Q_8kS4ZeKty7kXpfNYcQ-140" value="" style="rounded=0;whiteSpace=wrap;html=1;fillColor=none;movable=0;resizable=0;rotatable=0;deletable=0;editable=0;connectable=0;" parent="Q_8kS4ZeKty7kXpfNYcQ-125" vertex="1">
          <mxGeometry x="1778.2099999999998" y="3112" width="39.37" height="19.685" as="geometry" />
        </mxCell>
        <mxCell id="Q_8kS4ZeKty7kXpfNYcQ-141" value="" style="rounded=0;whiteSpace=wrap;html=1;fillColor=none;movable=0;resizable=0;rotatable=0;deletable=0;editable=0;connectable=0;" parent="Q_8kS4ZeKty7kXpfNYcQ-125" vertex="1">
          <mxGeometry x="1778.2" y="3131.67" width="39.37" height="19.685" as="geometry" />
        </mxCell>
        <mxCell id="Q_8kS4ZeKty7kXpfNYcQ-142" value="" style="rounded=0;whiteSpace=wrap;html=1;fillColor=none;movable=0;resizable=0;rotatable=0;deletable=0;editable=0;connectable=0;" parent="Q_8kS4ZeKty7kXpfNYcQ-125" vertex="1">
          <mxGeometry x="1778.19" y="3091.47" width="39.37" height="19.685" as="geometry" />
        </mxCell>
        <mxCell id="Q_8kS4ZeKty7kXpfNYcQ-143" value="" style="rounded=0;whiteSpace=wrap;html=1;fillColor=none;movable=0;resizable=0;rotatable=0;deletable=0;editable=0;connectable=0;" parent="Q_8kS4ZeKty7kXpfNYcQ-125" vertex="1">
          <mxGeometry x="1817.56" y="3072.86" width="472.43" height="59.055" as="geometry" />
        </mxCell>
        <mxCell id="Q_8kS4ZeKty7kXpfNYcQ-144" value="Изм." style="text;html=1;strokeColor=none;fillColor=none;align=center;verticalAlign=middle;whiteSpace=wrap;rounded=0;fontFamily=Times New Roman;fontSize=10;movable=0;resizable=0;rotatable=0;deletable=0;editable=0;connectable=0;" parent="Q_8kS4ZeKty7kXpfNYcQ-125" vertex="1">
          <mxGeometry x="1561.11" y="3131.66" width="27.558999999999997" height="19.685" as="geometry" />
        </mxCell>
        <mxCell id="Q_8kS4ZeKty7kXpfNYcQ-145" value="Лист" style="text;html=1;strokeColor=none;fillColor=none;align=center;verticalAlign=middle;whiteSpace=wrap;rounded=0;fontFamily=Times New Roman;fontSize=10;movable=0;resizable=0;rotatable=0;deletable=0;editable=0;connectable=0;" parent="Q_8kS4ZeKty7kXpfNYcQ-125" vertex="1">
          <mxGeometry x="1589.9099999999999" y="3130.85" width="39.37" height="19.685" as="geometry" />
        </mxCell>
        <mxCell id="Q_8kS4ZeKty7kXpfNYcQ-146" value="№ докум." style="text;html=1;strokeColor=none;fillColor=none;align=center;verticalAlign=middle;whiteSpace=wrap;rounded=0;fontFamily=Times New Roman;fontSize=10;movable=0;resizable=0;rotatable=0;deletable=0;editable=0;connectable=0;" parent="Q_8kS4ZeKty7kXpfNYcQ-125" vertex="1">
          <mxGeometry x="1629.2799999999997" y="3131.66" width="90.551" height="19.68" as="geometry" />
        </mxCell>
        <mxCell id="Q_8kS4ZeKty7kXpfNYcQ-147" value="Подп" style="text;html=1;strokeColor=none;fillColor=none;align=center;verticalAlign=middle;whiteSpace=wrap;rounded=0;fontFamily=Times New Roman;fontSize=10;movable=0;resizable=0;rotatable=0;deletable=0;editable=0;connectable=0;" parent="Q_8kS4ZeKty7kXpfNYcQ-125" vertex="1">
          <mxGeometry x="1718.5900000000001" y="3131.93" width="59.055" height="19.68" as="geometry" />
        </mxCell>
        <mxCell id="Q_8kS4ZeKty7kXpfNYcQ-148" value="Дата" style="text;html=1;strokeColor=none;fillColor=none;align=center;verticalAlign=middle;whiteSpace=wrap;rounded=0;fontFamily=Times New Roman;fontSize=10;movable=0;resizable=0;rotatable=0;deletable=0;editable=0;connectable=0;" parent="Q_8kS4ZeKty7kXpfNYcQ-125" vertex="1">
          <mxGeometry x="1778.1899999999998" y="3131.93" width="39.37" height="19.685" as="geometry" />
        </mxCell>
        <mxCell id="Q_8kS4ZeKty7kXpfNYcQ-149" value="" style="rounded=0;whiteSpace=wrap;html=1;fillColor=none;movable=0;resizable=0;rotatable=0;deletable=0;editable=0;connectable=0;" parent="Q_8kS4ZeKty7kXpfNYcQ-125" vertex="1">
          <mxGeometry x="1562" y="3151.6" width="66.929" height="19.68" as="geometry" />
        </mxCell>
        <mxCell id="Q_8kS4ZeKty7kXpfNYcQ-150" value="" style="rounded=0;whiteSpace=wrap;html=1;fillColor=none;movable=0;resizable=0;rotatable=0;deletable=0;editable=0;connectable=0;" parent="Q_8kS4ZeKty7kXpfNYcQ-125" vertex="1">
          <mxGeometry x="1562" y="3171.28" width="66.929" height="19.68" as="geometry" />
        </mxCell>
        <mxCell id="Q_8kS4ZeKty7kXpfNYcQ-151" value="" style="rounded=0;whiteSpace=wrap;html=1;fillColor=none;movable=0;resizable=0;rotatable=0;deletable=0;editable=0;connectable=0;" parent="Q_8kS4ZeKty7kXpfNYcQ-125" vertex="1">
          <mxGeometry x="1562" y="3190.96" width="66.929" height="19.68" as="geometry" />
        </mxCell>
        <mxCell id="Q_8kS4ZeKty7kXpfNYcQ-152" value="" style="rounded=0;whiteSpace=wrap;html=1;fillColor=none;movable=0;resizable=0;rotatable=0;deletable=0;editable=0;connectable=0;" parent="Q_8kS4ZeKty7kXpfNYcQ-125" vertex="1">
          <mxGeometry x="1562" y="3210.64" width="66.929" height="19.68" as="geometry" />
        </mxCell>
        <mxCell id="Q_8kS4ZeKty7kXpfNYcQ-153" value="" style="rounded=0;whiteSpace=wrap;html=1;fillColor=none;movable=0;resizable=0;rotatable=0;deletable=0;editable=0;connectable=0;" parent="Q_8kS4ZeKty7kXpfNYcQ-125" vertex="1">
          <mxGeometry x="1562" y="3230.32" width="66.929" height="19.68" as="geometry" />
        </mxCell>
        <mxCell id="Q_8kS4ZeKty7kXpfNYcQ-154" value="" style="rounded=0;whiteSpace=wrap;html=1;fillColor=none;movable=0;resizable=0;rotatable=0;deletable=0;editable=0;connectable=0;" parent="Q_8kS4ZeKty7kXpfNYcQ-125" vertex="1">
          <mxGeometry x="1628.6" y="3131.6699999999996" width="90.551" height="19.68" as="geometry" />
        </mxCell>
        <mxCell id="Q_8kS4ZeKty7kXpfNYcQ-155" value="" style="rounded=0;whiteSpace=wrap;html=1;fillColor=none;movable=0;resizable=0;rotatable=0;deletable=0;editable=0;connectable=0;" parent="Q_8kS4ZeKty7kXpfNYcQ-125" vertex="1">
          <mxGeometry x="1628.59" y="3190.96" width="90.551" height="19.68" as="geometry" />
        </mxCell>
        <mxCell id="Q_8kS4ZeKty7kXpfNYcQ-156" value="" style="rounded=0;whiteSpace=wrap;html=1;fillColor=none;movable=0;resizable=0;rotatable=0;deletable=0;editable=0;connectable=0;" parent="Q_8kS4ZeKty7kXpfNYcQ-125" vertex="1">
          <mxGeometry x="1628.59" y="3210.64" width="90.551" height="19.68" as="geometry" />
        </mxCell>
        <mxCell id="Q_8kS4ZeKty7kXpfNYcQ-157" value="" style="rounded=0;whiteSpace=wrap;html=1;fillColor=none;movable=0;resizable=0;rotatable=0;deletable=0;editable=0;connectable=0;" parent="Q_8kS4ZeKty7kXpfNYcQ-125" vertex="1">
          <mxGeometry x="1628.59" y="3230.32" width="90.551" height="19.68" as="geometry" />
        </mxCell>
        <mxCell id="Q_8kS4ZeKty7kXpfNYcQ-158" value="" style="rounded=0;whiteSpace=wrap;html=1;fillColor=none;movable=0;resizable=0;rotatable=0;deletable=0;editable=0;connectable=0;" parent="Q_8kS4ZeKty7kXpfNYcQ-125" vertex="1">
          <mxGeometry x="1719.1499999999999" y="3151.61" width="59.055" height="19.68" as="geometry" />
        </mxCell>
        <mxCell id="Q_8kS4ZeKty7kXpfNYcQ-159" value="" style="rounded=0;whiteSpace=wrap;html=1;fillColor=none;movable=0;resizable=0;rotatable=0;deletable=0;editable=0;connectable=0;" parent="Q_8kS4ZeKty7kXpfNYcQ-125" vertex="1">
          <mxGeometry x="1719.1399999999999" y="3171.2799999999997" width="59.055" height="19.68" as="geometry" />
        </mxCell>
        <mxCell id="Q_8kS4ZeKty7kXpfNYcQ-160" value="" style="rounded=0;whiteSpace=wrap;html=1;fillColor=none;movable=0;resizable=0;rotatable=0;deletable=0;editable=0;connectable=0;" parent="Q_8kS4ZeKty7kXpfNYcQ-125" vertex="1">
          <mxGeometry x="1719.1399999999999" y="3190.96" width="59.055" height="19.68" as="geometry" />
        </mxCell>
        <mxCell id="Q_8kS4ZeKty7kXpfNYcQ-161" value="" style="rounded=0;whiteSpace=wrap;html=1;fillColor=none;movable=0;resizable=0;rotatable=0;deletable=0;editable=0;connectable=0;" parent="Q_8kS4ZeKty7kXpfNYcQ-125" vertex="1">
          <mxGeometry x="1719.1399999999999" y="3210.64" width="59.055" height="19.68" as="geometry" />
        </mxCell>
        <mxCell id="Q_8kS4ZeKty7kXpfNYcQ-162" value="" style="rounded=0;whiteSpace=wrap;html=1;fillColor=none;movable=0;resizable=0;rotatable=0;deletable=0;editable=0;connectable=0;" parent="Q_8kS4ZeKty7kXpfNYcQ-125" vertex="1">
          <mxGeometry x="1719.1399999999999" y="3230.32" width="59.055" height="19.68" as="geometry" />
        </mxCell>
        <mxCell id="Q_8kS4ZeKty7kXpfNYcQ-163" value="" style="rounded=0;whiteSpace=wrap;html=1;fillColor=none;movable=0;resizable=0;rotatable=0;deletable=0;editable=0;connectable=0;" parent="Q_8kS4ZeKty7kXpfNYcQ-125" vertex="1">
          <mxGeometry x="1778.1899999999998" y="3151.35" width="39.37" height="19.68" as="geometry" />
        </mxCell>
        <mxCell id="Q_8kS4ZeKty7kXpfNYcQ-164" value="" style="rounded=0;whiteSpace=wrap;html=1;fillColor=none;movable=0;resizable=0;rotatable=0;deletable=0;editable=0;connectable=0;" parent="Q_8kS4ZeKty7kXpfNYcQ-125" vertex="1">
          <mxGeometry x="1778.2" y="3171.2799999999997" width="39.37" height="19.68" as="geometry" />
        </mxCell>
        <mxCell id="Q_8kS4ZeKty7kXpfNYcQ-165" value="" style="rounded=0;whiteSpace=wrap;html=1;fillColor=none;movable=0;resizable=0;rotatable=0;deletable=0;editable=0;connectable=0;" parent="Q_8kS4ZeKty7kXpfNYcQ-125" vertex="1">
          <mxGeometry x="1778.2" y="3190.96" width="39.37" height="19.68" as="geometry" />
        </mxCell>
        <mxCell id="Q_8kS4ZeKty7kXpfNYcQ-166" value="" style="rounded=0;whiteSpace=wrap;html=1;fillColor=none;movable=0;resizable=0;rotatable=0;deletable=0;editable=0;connectable=0;" parent="Q_8kS4ZeKty7kXpfNYcQ-125" vertex="1">
          <mxGeometry x="1778.2" y="3210.64" width="39.37" height="19.68" as="geometry" />
        </mxCell>
        <mxCell id="Q_8kS4ZeKty7kXpfNYcQ-167" value="" style="rounded=0;whiteSpace=wrap;html=1;fillColor=none;movable=0;resizable=0;rotatable=0;deletable=0;editable=0;connectable=0;" parent="Q_8kS4ZeKty7kXpfNYcQ-125" vertex="1">
          <mxGeometry x="1778.2" y="3230.32" width="39.37" height="19.68" as="geometry" />
        </mxCell>
        <mxCell id="Q_8kS4ZeKty7kXpfNYcQ-168" value="" style="rounded=0;whiteSpace=wrap;html=1;fontFamily=Times New Roman;fontSize=10;fillColor=none;movable=0;resizable=0;rotatable=0;deletable=0;editable=0;connectable=0;" parent="Q_8kS4ZeKty7kXpfNYcQ-125" vertex="1">
          <mxGeometry x="2218.59" y="3131.68" width="70.866" height="19.685" as="geometry" />
        </mxCell>
        <mxCell id="Q_8kS4ZeKty7kXpfNYcQ-169" value="" style="rounded=0;whiteSpace=wrap;html=1;fontFamily=Times New Roman;fontSize=10;fillColor=none;movable=0;resizable=0;rotatable=0;deletable=0;editable=0;connectable=0;" parent="Q_8kS4ZeKty7kXpfNYcQ-125" vertex="1">
          <mxGeometry x="2219.1400000000003" y="3150.53" width="70.866" height="39.37" as="geometry" />
        </mxCell>
        <mxCell id="Q_8kS4ZeKty7kXpfNYcQ-170" value="" style="rounded=0;whiteSpace=wrap;html=1;fontFamily=Times New Roman;fontSize=10;fillColor=none;movable=0;resizable=0;rotatable=0;deletable=0;editable=0;connectable=0;" parent="Q_8kS4ZeKty7kXpfNYcQ-125" vertex="1">
          <mxGeometry x="2152.23" y="3131.68" width="66.929" height="19.685" as="geometry" />
        </mxCell>
        <mxCell id="Q_8kS4ZeKty7kXpfNYcQ-171" value="" style="rounded=0;whiteSpace=wrap;html=1;fontFamily=Times New Roman;fontSize=10;fillColor=none;movable=0;resizable=0;rotatable=0;deletable=0;editable=0;connectable=0;" parent="Q_8kS4ZeKty7kXpfNYcQ-125" vertex="1">
          <mxGeometry x="2152.21" y="3150.53" width="66.929" height="39.37" as="geometry" />
        </mxCell>
        <mxCell id="Q_8kS4ZeKty7kXpfNYcQ-172" value="" style="rounded=0;whiteSpace=wrap;html=1;fontFamily=Times New Roman;fontSize=10;fillColor=none;movable=0;resizable=0;rotatable=0;deletable=0;editable=0;connectable=0;" parent="Q_8kS4ZeKty7kXpfNYcQ-125" vertex="1">
          <mxGeometry x="2093.1800000000003" y="3131.92" width="59.055" height="19.685" as="geometry" />
        </mxCell>
        <mxCell id="Q_8kS4ZeKty7kXpfNYcQ-173" value="" style="rounded=0;whiteSpace=wrap;html=1;fontFamily=Times New Roman;fontSize=10;fillColor=none;movable=0;resizable=0;rotatable=0;deletable=0;editable=0;connectable=0;" parent="Q_8kS4ZeKty7kXpfNYcQ-125" vertex="1">
          <mxGeometry x="2093.1600000000003" y="3150.5299999999997" width="59.05" height="39.37" as="geometry" />
        </mxCell>
        <mxCell id="Q_8kS4ZeKty7kXpfNYcQ-174" value="" style="rounded=0;whiteSpace=wrap;html=1;fontFamily=Times New Roman;fontSize=10;fillColor=none;movable=0;resizable=0;rotatable=0;deletable=0;editable=0;connectable=0;" parent="Q_8kS4ZeKty7kXpfNYcQ-125" vertex="1">
          <mxGeometry x="2093.14" y="3190.9700000000003" width="196.85" height="59.055" as="geometry" />
        </mxCell>
        <mxCell id="Q_8kS4ZeKty7kXpfNYcQ-175" value="Разраб" style="text;html=1;strokeColor=none;fillColor=none;align=center;verticalAlign=middle;whiteSpace=wrap;rounded=0;fontFamily=Times New Roman;fontSize=10;movable=0;resizable=0;rotatable=0;deletable=0;editable=0;connectable=0;" parent="Q_8kS4ZeKty7kXpfNYcQ-125" vertex="1">
          <mxGeometry x="1562.35" y="3149.47" width="66.929" height="19.68" as="geometry" />
        </mxCell>
        <mxCell id="Q_8kS4ZeKty7kXpfNYcQ-176" value="Пров" style="text;html=1;strokeColor=none;fillColor=none;align=center;verticalAlign=middle;whiteSpace=wrap;rounded=0;fontFamily=Times New Roman;fontSize=10;movable=0;resizable=0;rotatable=0;deletable=0;editable=0;connectable=0;" parent="Q_8kS4ZeKty7kXpfNYcQ-125" vertex="1">
          <mxGeometry x="1561.1069999999997" y="3170.217" width="66.929" height="19.68" as="geometry" />
        </mxCell>
        <mxCell id="Q_8kS4ZeKty7kXpfNYcQ-177" value="Н. Контр." style="text;html=1;strokeColor=none;fillColor=none;align=center;verticalAlign=middle;whiteSpace=wrap;rounded=0;fontFamily=Times New Roman;fontSize=10;movable=0;resizable=0;rotatable=0;deletable=0;editable=0;connectable=0;" parent="Q_8kS4ZeKty7kXpfNYcQ-125" vertex="1">
          <mxGeometry x="1562.001" y="3210.641" width="66.929" height="19.68" as="geometry" />
        </mxCell>
        <mxCell id="Q_8kS4ZeKty7kXpfNYcQ-178" value="Утв." style="text;html=1;strokeColor=none;fillColor=none;align=center;verticalAlign=middle;whiteSpace=wrap;rounded=0;fontFamily=Times New Roman;fontSize=10;movable=0;resizable=0;rotatable=0;deletable=0;editable=0;connectable=0;" parent="Q_8kS4ZeKty7kXpfNYcQ-125" vertex="1">
          <mxGeometry x="1562.008" y="3230.348" width="66.929" height="19.68" as="geometry" />
        </mxCell>
        <mxCell id="Q_8kS4ZeKty7kXpfNYcQ-179" value="Лит." style="text;html=1;strokeColor=none;fillColor=none;align=center;verticalAlign=middle;whiteSpace=wrap;rounded=0;fontFamily=Times New Roman;fontSize=10;movable=0;resizable=0;rotatable=0;deletable=0;editable=0;connectable=0;" parent="Q_8kS4ZeKty7kXpfNYcQ-125" vertex="1">
          <mxGeometry x="2093.1800000000003" y="3131.93" width="59.055" height="19.68" as="geometry" />
        </mxCell>
        <mxCell id="Q_8kS4ZeKty7kXpfNYcQ-180" value="Лист" style="text;html=1;strokeColor=none;fillColor=none;align=center;verticalAlign=middle;whiteSpace=wrap;rounded=0;fontFamily=Times New Roman;fontSize=10;movable=0;resizable=0;rotatable=0;deletable=0;editable=0;connectable=0;" parent="Q_8kS4ZeKty7kXpfNYcQ-125" vertex="1">
          <mxGeometry x="2152.2320000000004" y="3131.682" width="66.929" height="19.68" as="geometry" />
        </mxCell>
        <mxCell id="Q_8kS4ZeKty7kXpfNYcQ-181" value="Листов" style="text;html=1;strokeColor=none;fillColor=none;align=center;verticalAlign=middle;whiteSpace=wrap;rounded=0;fontFamily=Times New Roman;fontSize=10;movable=0;resizable=0;rotatable=0;deletable=0;editable=0;connectable=0;" parent="Q_8kS4ZeKty7kXpfNYcQ-125" vertex="1">
          <mxGeometry x="2219.16" y="3131.68" width="69.75" height="19.68" as="geometry" />
        </mxCell>
        <mxCell id="Q_8kS4ZeKty7kXpfNYcQ-182" value="" style="rounded=0;whiteSpace=wrap;html=1;fillColor=none;movable=0;resizable=0;rotatable=0;deletable=0;editable=0;connectable=0;" parent="Q_8kS4ZeKty7kXpfNYcQ-125" vertex="1">
          <mxGeometry x="1628.0400000000002" y="3151.6099999999997" width="90.551" height="19.685" as="geometry" />
        </mxCell>
        <mxCell id="Q_8kS4ZeKty7kXpfNYcQ-183" value="Вершинин В. В." style="text;html=1;strokeColor=none;fillColor=none;align=center;verticalAlign=middle;whiteSpace=wrap;rounded=0;fontFamily=Times New Roman;fontSize=10;movable=0;resizable=0;rotatable=0;deletable=0;editable=0;connectable=0;" parent="Q_8kS4ZeKty7kXpfNYcQ-125" vertex="1">
          <mxGeometry x="1629.28" y="3171.03" width="88.74" height="19.68" as="geometry" />
        </mxCell>
        <mxCell id="Q_8kS4ZeKty7kXpfNYcQ-184" value="Фамилия И. О." style="text;html=1;strokeColor=none;fillColor=none;align=center;verticalAlign=middle;whiteSpace=wrap;rounded=0;fontFamily=Times New Roman;fontSize=10;movable=0;resizable=0;rotatable=0;deletable=0;editable=0;connectable=0;" parent="Q_8kS4ZeKty7kXpfNYcQ-125" vertex="1">
          <mxGeometry x="1628.597" y="3151.337" width="88.74" height="19.68" as="geometry" />
        </mxCell>
        <mxCell id="Q_8kS4ZeKty7kXpfNYcQ-185" value="&lt;span style=&quot;font-size: 14.0pt ; line-height: 150% ; font-family: &amp;quot;times new roman&amp;quot; , serif&quot;&gt;ВлГУ.09.03.02.&lt;/span&gt;" style="text;html=1;strokeColor=none;fillColor=none;align=center;verticalAlign=middle;whiteSpace=wrap;rounded=0;fontFamily=Times New Roman;fontSize=10;movable=0;resizable=0;rotatable=0;deletable=0;editable=0;connectable=0;" parent="Q_8kS4ZeKty7kXpfNYcQ-125" vertex="1">
          <mxGeometry x="1817.56" y="3072.86" width="471.33" height="56.74" as="geometry" />
        </mxCell>
        <mxCell id="Q_8kS4ZeKty7kXpfNYcQ-186" value="&lt;font style=&quot;font-size: 17px;&quot;&gt;ИСТ-120&lt;/font&gt;" style="text;html=1;strokeColor=none;fillColor=none;align=center;verticalAlign=middle;whiteSpace=wrap;rounded=0;fontFamily=Times New Roman;fontSize=10;movable=0;resizable=0;rotatable=0;deletable=0;editable=0;connectable=0;" parent="Q_8kS4ZeKty7kXpfNYcQ-125" vertex="1">
          <mxGeometry x="2093.18" y="3189.9" width="195.71" height="57.81" as="geometry" />
        </mxCell>
        <mxCell id="Q_8kS4ZeKty7kXpfNYcQ-187" value="&lt;font style=&quot;font-size: 17px&quot;&gt;Диаграмма состояний&lt;br&gt;&lt;/font&gt;" style="text;html=1;strokeColor=none;fillColor=none;align=center;verticalAlign=middle;whiteSpace=wrap;rounded=0;fontFamily=Times New Roman;fontSize=10;movable=0;resizable=0;rotatable=0;deletable=0;editable=0;connectable=0;" parent="Q_8kS4ZeKty7kXpfNYcQ-125" vertex="1">
          <mxGeometry x="1817.58" y="3131.93" width="274.46" height="116.09" as="geometry" />
        </mxCell>
        <mxCell id="Q_8kS4ZeKty7kXpfNYcQ-188" value="Пользователь" style="shape=umlFrame;whiteSpace=wrap;html=1;fontSize=17;width=145;height=50;movable=0;resizable=0;rotatable=0;deletable=0;editable=0;connectable=0;" parent="Q_8kS4ZeKty7kXpfNYcQ-125" vertex="1">
          <mxGeometry x="55" y="70" width="545" height="560" as="geometry" />
        </mxCell>
        <mxCell id="Q_8kS4ZeKty7kXpfNYcQ-189" value="" style="ellipse;html=1;shape=startState;fillColor=#000000;strokeColor=#ff0000;fontSize=17;" parent="Q_8kS4ZeKty7kXpfNYcQ-125" vertex="1">
          <mxGeometry x="310" y="110" width="30" height="30" as="geometry" />
        </mxCell>
        <mxCell id="Q_8kS4ZeKty7kXpfNYcQ-190" value="" style="edgeStyle=orthogonalEdgeStyle;html=1;verticalAlign=bottom;endArrow=open;endSize=8;strokeColor=#ff0000;rounded=0;fontSize=17;entryX=0.5;entryY=0;entryDx=0;entryDy=0;" parent="Q_8kS4ZeKty7kXpfNYcQ-125" source="Q_8kS4ZeKty7kXpfNYcQ-189" target="Q_8kS4ZeKty7kXpfNYcQ-192" edge="1">
          <mxGeometry relative="1" as="geometry">
            <mxPoint x="325" y="200" as="targetPoint" />
          </mxGeometry>
        </mxCell>
        <mxCell id="Q_8kS4ZeKty7kXpfNYcQ-191" value="" style="ellipse;html=1;shape=endState;fillColor=#000000;strokeColor=#ff0000;fontSize=17;" parent="Q_8kS4ZeKty7kXpfNYcQ-125" vertex="1">
          <mxGeometry x="150" y="517" width="30" height="30" as="geometry" />
        </mxCell>
        <mxCell id="Q_8kS4ZeKty7kXpfNYcQ-192" value="Пользователь офлайн" style="rounded=1;whiteSpace=wrap;html=1;arcSize=40;fontColor=#000000;fillColor=#ffffc0;strokeColor=#ff0000;fontSize=17;" parent="Q_8kS4ZeKty7kXpfNYcQ-125" vertex="1">
          <mxGeometry x="248.75" y="203" width="152.5" height="50" as="geometry" />
        </mxCell>
        <mxCell id="Q_8kS4ZeKty7kXpfNYcQ-193" value="" style="edgeStyle=orthogonalEdgeStyle;html=1;verticalAlign=bottom;endArrow=open;endSize=8;strokeColor=#ff0000;rounded=0;fontSize=17;entryX=0.5;entryY=0;entryDx=0;entryDy=0;" parent="Q_8kS4ZeKty7kXpfNYcQ-125" source="Q_8kS4ZeKty7kXpfNYcQ-192" target="Q_8kS4ZeKty7kXpfNYcQ-194" edge="1">
          <mxGeometry relative="1" as="geometry">
            <mxPoint x="325" y="310" as="targetPoint" />
          </mxGeometry>
        </mxCell>
        <mxCell id="Q_8kS4ZeKty7kXpfNYcQ-203" value="&lt;font style=&quot;font-size: 17px;&quot;&gt;Пользователь &lt;br&gt;авторизован&lt;/font&gt;" style="edgeLabel;html=1;align=center;verticalAlign=middle;resizable=0;points=[];fontSize=17;" parent="Q_8kS4ZeKty7kXpfNYcQ-193" vertex="1" connectable="0">
          <mxGeometry x="-0.1534" y="1" relative="1" as="geometry">
            <mxPoint y="2" as="offset" />
          </mxGeometry>
        </mxCell>
        <mxCell id="Q_8kS4ZeKty7kXpfNYcQ-194" value="Пользователь онлайн" style="rounded=1;whiteSpace=wrap;html=1;arcSize=40;fontColor=#000000;fillColor=#ffffc0;strokeColor=#ff0000;fontSize=17;" parent="Q_8kS4ZeKty7kXpfNYcQ-125" vertex="1">
          <mxGeometry x="248.75" y="356" width="152.5" height="50" as="geometry" />
        </mxCell>
        <mxCell id="Q_8kS4ZeKty7kXpfNYcQ-195" value="Пользователь в спящем режиме" style="rounded=1;whiteSpace=wrap;html=1;arcSize=40;fontColor=#000000;fillColor=#ffffc0;strokeColor=#ff0000;fontSize=17;" parent="Q_8kS4ZeKty7kXpfNYcQ-125" vertex="1">
          <mxGeometry x="248.75" y="510" width="152.5" height="60" as="geometry" />
        </mxCell>
        <mxCell id="Q_8kS4ZeKty7kXpfNYcQ-197" value="" style="edgeStyle=orthogonalEdgeStyle;html=1;verticalAlign=bottom;endArrow=open;endSize=8;strokeColor=#ff0000;rounded=0;fontSize=17;entryX=0.5;entryY=0;entryDx=0;entryDy=0;exitX=0.75;exitY=1;exitDx=0;exitDy=0;" parent="Q_8kS4ZeKty7kXpfNYcQ-125" source="Q_8kS4ZeKty7kXpfNYcQ-194" target="Q_8kS4ZeKty7kXpfNYcQ-195" edge="1">
          <mxGeometry relative="1" as="geometry">
            <mxPoint x="410" y="440" as="targetPoint" />
            <mxPoint x="325" y="410" as="sourcePoint" />
            <Array as="points">
              <mxPoint x="325" y="406" />
            </Array>
          </mxGeometry>
        </mxCell>
        <mxCell id="Q_8kS4ZeKty7kXpfNYcQ-205" value="&lt;font style=&quot;font-size: 17px;&quot;&gt;Пользователь&lt;br&gt;бездействует&lt;/font&gt;" style="edgeLabel;html=1;align=center;verticalAlign=middle;resizable=0;points=[];fontSize=14;" parent="Q_8kS4ZeKty7kXpfNYcQ-197" vertex="1" connectable="0">
          <mxGeometry x="-0.1935" y="-1" relative="1" as="geometry">
            <mxPoint y="27" as="offset" />
          </mxGeometry>
        </mxCell>
        <mxCell id="Q_8kS4ZeKty7kXpfNYcQ-199" value="" style="edgeStyle=orthogonalEdgeStyle;html=1;verticalAlign=bottom;endArrow=open;endSize=8;strokeColor=#ff0000;rounded=0;fontSize=17;entryX=1;entryY=0.5;entryDx=0;entryDy=0;exitX=1;exitY=0.5;exitDx=0;exitDy=0;" parent="Q_8kS4ZeKty7kXpfNYcQ-125" source="Q_8kS4ZeKty7kXpfNYcQ-195" target="Q_8kS4ZeKty7kXpfNYcQ-194" edge="1">
          <mxGeometry relative="1" as="geometry">
            <mxPoint x="339.23" y="580" as="targetPoint" />
            <mxPoint x="339.23" y="510" as="sourcePoint" />
            <Array as="points">
              <mxPoint x="500" y="540" />
              <mxPoint x="500" y="381" />
            </Array>
          </mxGeometry>
        </mxCell>
        <mxCell id="Q_8kS4ZeKty7kXpfNYcQ-207" value="&lt;font style=&quot;font-size: 17px;&quot;&gt;Пользователь &lt;br&gt;возобновил активность&lt;/font&gt;" style="edgeLabel;html=1;align=center;verticalAlign=middle;resizable=0;points=[];fontSize=17;" parent="Q_8kS4ZeKty7kXpfNYcQ-199" vertex="1" connectable="0">
          <mxGeometry x="0.0842" y="2" relative="1" as="geometry">
            <mxPoint y="8" as="offset" />
          </mxGeometry>
        </mxCell>
        <mxCell id="Q_8kS4ZeKty7kXpfNYcQ-200" value="&lt;span style=&quot;font-size: 14.0pt ; line-height: 150% ; font-family: &amp;quot;times new roman&amp;quot; , serif&quot;&gt;ВлГУ.09.03.02.&lt;/span&gt;" style="text;html=1;strokeColor=none;fillColor=none;align=center;verticalAlign=middle;whiteSpace=wrap;rounded=0;fontFamily=Times New Roman;fontSize=10;movable=0;resizable=0;rotatable=0;deletable=0;editable=0;connectable=0;" parent="Q_8kS4ZeKty7kXpfNYcQ-125" vertex="1">
          <mxGeometry x="1817.56" y="3072.59" width="471.33" height="56.74" as="geometry" />
        </mxCell>
        <mxCell id="Q_8kS4ZeKty7kXpfNYcQ-201" value="" style="rounded=0;whiteSpace=wrap;html=1;fillColor=none;movable=0;resizable=0;rotatable=0;deletable=0;editable=0;connectable=0;" parent="Q_8kS4ZeKty7kXpfNYcQ-125" vertex="1">
          <mxGeometry x="1561.1100000000001" y="3072.59" width="728.35" height="177.165" as="geometry" />
        </mxCell>
        <mxCell id="Q_8kS4ZeKty7kXpfNYcQ-204" value="" style="edgeStyle=orthogonalEdgeStyle;html=1;verticalAlign=bottom;endArrow=open;endSize=8;strokeColor=#ff0000;rounded=0;fontSize=17;entryX=0.5;entryY=0;entryDx=0;entryDy=0;exitX=0;exitY=0.5;exitDx=0;exitDy=0;" parent="Q_8kS4ZeKty7kXpfNYcQ-125" source="Q_8kS4ZeKty7kXpfNYcQ-194" target="Q_8kS4ZeKty7kXpfNYcQ-191" edge="1">
          <mxGeometry relative="1" as="geometry">
            <mxPoint x="335" y="450.0000000000001" as="targetPoint" />
            <mxPoint x="335" y="379.9999999999999" as="sourcePoint" />
            <Array as="points">
              <mxPoint x="165" y="381" />
            </Array>
          </mxGeometry>
        </mxCell>
        <mxCell id="Q_8kS4ZeKty7kXpfNYcQ-208" value="&lt;font style=&quot;font-size: 17px;&quot;&gt;Пользователь &lt;br&gt;вышел&lt;/font&gt;" style="edgeLabel;html=1;align=center;verticalAlign=middle;resizable=0;points=[];fontSize=14;" parent="Q_8kS4ZeKty7kXpfNYcQ-204" vertex="1" connectable="0">
          <mxGeometry x="0.2592" y="-2" relative="1" as="geometry">
            <mxPoint y="28" as="offset" />
          </mxGeometry>
        </mxCell>
        <mxCell id="n6II8ch7mGCCmk7t5fSw-3" value="&lt;font style=&quot;font-size: 17px;&quot;&gt;Бот на клиенте&lt;/font&gt;" style="shape=umlFrame;whiteSpace=wrap;html=1;movable=1;resizable=1;rotatable=1;deletable=1;editable=1;connectable=1;width=160;height=40;" parent="Q_8kS4ZeKty7kXpfNYcQ-125" vertex="1">
          <mxGeometry x="680" y="70" width="530" height="740" as="geometry" />
        </mxCell>
        <mxCell id="n6II8ch7mGCCmk7t5fSw-6" value="&lt;font style=&quot;font-size: 17px;&quot;&gt;Бот создан&lt;br&gt;на карте&lt;br&gt;&lt;/font&gt;" style="rounded=1;whiteSpace=wrap;html=1;arcSize=40;fontColor=#000000;fillColor=#ffffc0;strokeColor=#ff0000;" parent="Q_8kS4ZeKty7kXpfNYcQ-125" vertex="1">
          <mxGeometry x="790" y="190" width="143" height="71" as="geometry" />
        </mxCell>
        <mxCell id="n6II8ch7mGCCmk7t5fSw-9" value="&lt;span style=&quot;font-size: 17px;&quot;&gt;Бот обучен&lt;/span&gt;" style="rounded=1;whiteSpace=wrap;html=1;arcSize=40;fontColor=#000000;fillColor=#ffffc0;strokeColor=#ff0000;" parent="Q_8kS4ZeKty7kXpfNYcQ-125" vertex="1">
          <mxGeometry x="791" y="381" width="143" height="70" as="geometry" />
        </mxCell>
        <mxCell id="n6II8ch7mGCCmk7t5fSw-10" value="" style="edgeStyle=orthogonalEdgeStyle;html=1;verticalAlign=bottom;endArrow=open;endSize=8;strokeColor=#ff0000;rounded=0;entryX=0.5;entryY=0;entryDx=0;entryDy=0;exitX=0.5;exitY=1;exitDx=0;exitDy=0;" parent="Q_8kS4ZeKty7kXpfNYcQ-125" source="n6II8ch7mGCCmk7t5fSw-9" target="6siHzJh7-gwQxdMjBjXB-26" edge="1">
          <mxGeometry relative="1" as="geometry">
            <mxPoint x="1006" y="442" as="targetPoint" />
            <mxPoint x="1000" y="410" as="sourcePoint" />
          </mxGeometry>
        </mxCell>
        <mxCell id="n6II8ch7mGCCmk7t5fSw-19" value="" style="edgeStyle=orthogonalEdgeStyle;html=1;align=left;verticalAlign=bottom;endArrow=open;endSize=8;strokeColor=#ff0000;rounded=0;entryX=0.5;entryY=0;entryDx=0;entryDy=0;exitX=0.5;exitY=1;exitDx=0;exitDy=0;" parent="Q_8kS4ZeKty7kXpfNYcQ-125" source="6siHzJh7-gwQxdMjBjXB-26" target="n6II8ch7mGCCmk7t5fSw-21" edge="1">
          <mxGeometry x="-0.8167" y="5" relative="1" as="geometry">
            <mxPoint x="1170" y="650" as="targetPoint" />
            <Array as="points">
              <mxPoint x="862" y="670" />
              <mxPoint x="862" y="730" />
            </Array>
            <mxPoint as="offset" />
            <mxPoint x="1092.75" y="479.5" as="sourcePoint" />
          </mxGeometry>
        </mxCell>
        <mxCell id="n6II8ch7mGCCmk7t5fSw-22" value="&lt;font style=&quot;font-size: 17px;&quot;&gt;Удаление бота с карты&lt;/font&gt;" style="edgeLabel;html=1;align=center;verticalAlign=middle;resizable=0;points=[];" parent="n6II8ch7mGCCmk7t5fSw-19" vertex="1" connectable="0">
          <mxGeometry x="0.373" y="-2" relative="1" as="geometry">
            <mxPoint x="2" y="-28" as="offset" />
          </mxGeometry>
        </mxCell>
        <mxCell id="n6II8ch7mGCCmk7t5fSw-20" value="" style="edgeStyle=orthogonalEdgeStyle;html=1;align=left;verticalAlign=top;endArrow=open;endSize=8;strokeColor=#ff0000;rounded=0;exitX=1;exitY=0.5;exitDx=0;exitDy=0;entryX=0;entryY=0.5;entryDx=0;entryDy=0;" parent="Q_8kS4ZeKty7kXpfNYcQ-125" source="6siHzJh7-gwQxdMjBjXB-26" target="6siHzJh7-gwQxdMjBjXB-43" edge="1">
          <mxGeometry x="-0.5434" y="-333" relative="1" as="geometry">
            <mxPoint x="1670" y="560" as="targetPoint" />
            <mxPoint x="1006" y="517" as="sourcePoint" />
            <mxPoint x="-1" as="offset" />
            <Array as="points">
              <mxPoint x="1480" y="561" />
              <mxPoint x="1486" y="560" />
            </Array>
          </mxGeometry>
        </mxCell>
        <mxCell id="NQaZ65JmWhDcfg0Q4iQl-1" value="&lt;font style=&quot;font-size: 17px;&quot;&gt;Сохранение бота&lt;/font&gt;" style="edgeLabel;html=1;align=center;verticalAlign=middle;resizable=0;points=[];" vertex="1" connectable="0" parent="n6II8ch7mGCCmk7t5fSw-20">
          <mxGeometry x="-0.6791" y="-3" relative="1" as="geometry">
            <mxPoint x="41" y="-3" as="offset" />
          </mxGeometry>
        </mxCell>
        <mxCell id="n6II8ch7mGCCmk7t5fSw-21" value="" style="ellipse;html=1;shape=endState;fillColor=#000000;strokeColor=#ff0000;" parent="Q_8kS4ZeKty7kXpfNYcQ-125" vertex="1">
          <mxGeometry x="846.5" y="748" width="30" height="30" as="geometry" />
        </mxCell>
        <mxCell id="6siHzJh7-gwQxdMjBjXB-11" value="&lt;font style=&quot;font-size: 17px;&quot;&gt;Бот на сервере&lt;/font&gt;" style="shape=umlFrame;whiteSpace=wrap;html=1;movable=1;resizable=1;rotatable=1;deletable=1;editable=1;connectable=1;width=170;height=40;" parent="Q_8kS4ZeKty7kXpfNYcQ-125" vertex="1">
          <mxGeometry x="1240" y="70" width="590" height="740" as="geometry" />
        </mxCell>
        <mxCell id="6siHzJh7-gwQxdMjBjXB-12" value="" style="ellipse;html=1;shape=startState;fillColor=#000000;strokeColor=#ff0000;" parent="Q_8kS4ZeKty7kXpfNYcQ-125" vertex="1">
          <mxGeometry x="1532.35" y="90" width="30" height="30" as="geometry" />
        </mxCell>
        <mxCell id="6siHzJh7-gwQxdMjBjXB-26" value="" style="rhombus;whiteSpace=wrap;html=1;fillColor=#ffffc0;strokeColor=#ff0000;shadow=0;" parent="Q_8kS4ZeKty7kXpfNYcQ-125" vertex="1">
          <mxGeometry x="795" y="531" width="133" height="60" as="geometry" />
        </mxCell>
        <mxCell id="6siHzJh7-gwQxdMjBjXB-28" value="&lt;font style=&quot;font-size: 17px;&quot;&gt;Бот создан&lt;/font&gt;" style="rounded=1;whiteSpace=wrap;html=1;arcSize=40;fontColor=#000000;fillColor=#ffffc0;strokeColor=#ff0000;" parent="Q_8kS4ZeKty7kXpfNYcQ-125" vertex="1">
          <mxGeometry x="1480" y="195.75" width="134" height="59.5" as="geometry" />
        </mxCell>
        <mxCell id="6siHzJh7-gwQxdMjBjXB-30" value="" style="edgeStyle=orthogonalEdgeStyle;html=1;verticalAlign=bottom;endArrow=open;endSize=8;strokeColor=#ff0000;rounded=0;exitX=0.5;exitY=1;exitDx=0;exitDy=0;entryX=0.5;entryY=0;entryDx=0;entryDy=0;" parent="Q_8kS4ZeKty7kXpfNYcQ-125" source="6siHzJh7-gwQxdMjBjXB-12" target="6siHzJh7-gwQxdMjBjXB-28" edge="1">
          <mxGeometry relative="1" as="geometry">
            <mxPoint x="1845" y="209" as="targetPoint" />
            <mxPoint x="1778.54" y="110" as="sourcePoint" />
          </mxGeometry>
        </mxCell>
        <mxCell id="6siHzJh7-gwQxdMjBjXB-32" value="" style="edgeStyle=orthogonalEdgeStyle;html=1;verticalAlign=bottom;endArrow=open;endSize=8;strokeColor=#ff0000;rounded=0;entryX=1;entryY=0.5;entryDx=0;entryDy=0;exitX=0;exitY=0.5;exitDx=0;exitDy=0;" parent="Q_8kS4ZeKty7kXpfNYcQ-125" source="6siHzJh7-gwQxdMjBjXB-28" target="n6II8ch7mGCCmk7t5fSw-6" edge="1">
          <mxGeometry relative="1" as="geometry">
            <mxPoint x="1499.9999999999995" y="291" as="targetPoint" />
            <mxPoint x="1499.9999999999995" y="203" as="sourcePoint" />
          </mxGeometry>
        </mxCell>
        <mxCell id="6siHzJh7-gwQxdMjBjXB-33" value="&lt;span style=&quot;font-size: 17px;&quot;&gt;Отправка бота на клиент&lt;/span&gt;" style="edgeLabel;html=1;align=center;verticalAlign=middle;resizable=0;points=[];" parent="6siHzJh7-gwQxdMjBjXB-32" vertex="1" connectable="0">
          <mxGeometry x="0.2" y="1" relative="1" as="geometry">
            <mxPoint x="208" y="-1" as="offset" />
          </mxGeometry>
        </mxCell>
        <mxCell id="6siHzJh7-gwQxdMjBjXB-35" value="&lt;font style=&quot;font-size: 17px;&quot;&gt;Бот обучен&lt;/font&gt;" style="rounded=1;whiteSpace=wrap;html=1;arcSize=40;fontColor=#000000;fillColor=#ffffc0;strokeColor=#ff0000;" parent="Q_8kS4ZeKty7kXpfNYcQ-125" vertex="1">
          <mxGeometry x="1486" y="330" width="142.04" height="62.5" as="geometry" />
        </mxCell>
        <mxCell id="6siHzJh7-gwQxdMjBjXB-36" value="" style="edgeStyle=orthogonalEdgeStyle;html=1;verticalAlign=bottom;endArrow=open;endSize=8;strokeColor=#ff0000;rounded=0;exitX=0.5;exitY=1;exitDx=0;exitDy=0;entryX=0.994;entryY=0.551;entryDx=0;entryDy=0;entryPerimeter=0;" parent="Q_8kS4ZeKty7kXpfNYcQ-125" source="6siHzJh7-gwQxdMjBjXB-35" target="n6II8ch7mGCCmk7t5fSw-9" edge="1">
          <mxGeometry relative="1" as="geometry">
            <mxPoint x="2010" y="459" as="targetPoint" />
            <mxPoint x="2009.9999999999995" y="356" as="sourcePoint" />
            <Array as="points">
              <mxPoint x="1557" y="420" />
              <mxPoint x="933" y="420" />
            </Array>
          </mxGeometry>
        </mxCell>
        <mxCell id="6siHzJh7-gwQxdMjBjXB-37" value="&lt;font style=&quot;font-size: 17px;&quot;&gt;Отправка результата на клиент&lt;/font&gt;" style="edgeLabel;html=1;align=center;verticalAlign=middle;resizable=0;points=[];" parent="6siHzJh7-gwQxdMjBjXB-36" vertex="1" connectable="0">
          <mxGeometry x="0.2" y="1" relative="1" as="geometry">
            <mxPoint x="196" y="-1" as="offset" />
          </mxGeometry>
        </mxCell>
        <mxCell id="6siHzJh7-gwQxdMjBjXB-41" value="" style="edgeStyle=orthogonalEdgeStyle;html=1;verticalAlign=bottom;endArrow=open;endSize=8;strokeColor=#ff0000;rounded=0;exitX=0.5;exitY=1;exitDx=0;exitDy=0;entryX=0.5;entryY=0;entryDx=0;entryDy=0;" parent="Q_8kS4ZeKty7kXpfNYcQ-125" source="n6II8ch7mGCCmk7t5fSw-6" target="6siHzJh7-gwQxdMjBjXB-35" edge="1">
          <mxGeometry relative="1" as="geometry">
            <mxPoint x="1490" y="330" as="targetPoint" />
            <mxPoint x="1110.0026315789476" y="290" as="sourcePoint" />
            <Array as="points">
              <mxPoint x="862" y="310" />
              <mxPoint x="1006" y="310" />
              <mxPoint x="1006" y="300" />
              <mxPoint x="1557" y="300" />
            </Array>
          </mxGeometry>
        </mxCell>
        <mxCell id="6siHzJh7-gwQxdMjBjXB-42" value="Обучение бота" style="edgeLabel;html=1;align=center;verticalAlign=middle;resizable=0;points=[];fontSize=17;" parent="6siHzJh7-gwQxdMjBjXB-41" vertex="1" connectable="0">
          <mxGeometry x="0.0794" y="-4" relative="1" as="geometry">
            <mxPoint x="-215" y="-4" as="offset" />
          </mxGeometry>
        </mxCell>
        <mxCell id="6siHzJh7-gwQxdMjBjXB-43" value="&lt;span style=&quot;font-size: 17px;&quot;&gt;Бот сохранен в БД&lt;/span&gt;" style="rounded=1;whiteSpace=wrap;html=1;arcSize=40;fontColor=#000000;fillColor=#ffffc0;strokeColor=#ff0000;" parent="Q_8kS4ZeKty7kXpfNYcQ-125" vertex="1">
          <mxGeometry x="1480" y="534" width="170" height="54" as="geometry" />
        </mxCell>
        <mxCell id="6siHzJh7-gwQxdMjBjXB-48" value="" style="ellipse;html=1;shape=endState;fillColor=#000000;strokeColor=#ff0000;" parent="Q_8kS4ZeKty7kXpfNYcQ-125" vertex="1">
          <mxGeometry x="1550" y="756" width="30" height="30" as="geometry" />
        </mxCell>
        <mxCell id="6siHzJh7-gwQxdMjBjXB-49" value="" style="edgeStyle=orthogonalEdgeStyle;html=1;verticalAlign=bottom;endArrow=open;endSize=8;strokeColor=#ff0000;rounded=0;entryX=0.5;entryY=0;entryDx=0;entryDy=0;exitX=0.5;exitY=1;exitDx=0;exitDy=0;" parent="Q_8kS4ZeKty7kXpfNYcQ-125" source="6siHzJh7-gwQxdMjBjXB-43" target="6siHzJh7-gwQxdMjBjXB-48" edge="1">
          <mxGeometry relative="1" as="geometry">
            <mxPoint x="1694.67" y="722" as="targetPoint" />
            <mxPoint x="1694.67" y="630" as="sourcePoint" />
            <Array as="points" />
          </mxGeometry>
        </mxCell>
        <mxCell id="6siHzJh7-gwQxdMjBjXB-50" value="&lt;font style=&quot;font-size: 17px;&quot;&gt;Удаление бота из БД&lt;/font&gt;" style="edgeLabel;html=1;align=center;verticalAlign=middle;resizable=0;points=[];" parent="6siHzJh7-gwQxdMjBjXB-49" vertex="1" connectable="0">
          <mxGeometry x="-0.2551" relative="1" as="geometry">
            <mxPoint x="1" y="13" as="offset" />
          </mxGeometry>
        </mxCell>
      </root>
    </mxGraphModel>
  </diagram>
</mxfile>
